<svg width="17" height="17" viewBox="0 0 17 17" fill="none" xmlns="http://www.w3.org/2000/svg">
<g clip-path="url(#clip0_209_543)">
<path d="M14.5391 7.36168C14.5199 7.75079 14.2247 8.2312 13.7489 8.69292V14.7774C13.7484 14.9341 13.6867 15.0669 13.5824 15.1707C13.4776 15.2724 13.3417 15.3325 13.1819 15.3335H3.26611C3.10737 15.3325 2.97091 15.2723 2.86612 15.1707C2.76183 15.0669 2.70063 14.9341 2.7001 14.7774V5.05406C2.70063 4.89791 2.76183 4.76456 2.86612 4.6608C2.97091 4.5591 3.10737 4.49894 3.26611 4.49791H8.53243C8.95836 3.93864 9.45484 3.36588 10.0172 2.84087C10.0198 2.83775 10.0219 2.83463 10.0245 2.83154H3.26611C2.64356 2.83101 2.07133 3.0816 1.66406 3.48213C1.25474 3.88266 0.99947 4.44296 1 5.05409V14.7774C0.99947 15.3886 1.25474 15.9499 1.66406 16.3494C2.0713 16.7499 2.64356 16.9999 3.26611 16.9999H13.1819C13.8055 16.9999 14.3778 16.7499 14.785 16.3493C15.1933 15.9499 15.4491 15.3885 15.4485 14.7774V6.75572C15.4485 6.75572 15.4444 6.75054 15.4376 6.74533C15.1798 6.96636 14.8794 7.17697 14.5391 7.36168Z" fill="#A3AED0"/>
<path d="M17.0953 0C17.0953 0 16.5744 0.778215 13.1721 1.9294C9.70288 3.10346 7.56749 7.87953 7.56749 7.87953C7.05337 8.858 5.02121 12.9233 5.02121 12.9233C4.46144 13.9733 5.48708 14.5938 6.08889 13.5095C7.24216 11.4281 7.98664 9.52618 9.7402 9.47222C12.2984 9.39336 14.0478 7.15942 13.4973 7.26318C12.7731 7.57861 11.1762 7.28706 12.1168 7.14179C14.3746 6.96074 15.766 5.26373 15.3126 5.14858C14.5121 5.45674 13.7655 5.16415 13.6193 5.07593C17.6042 4.59136 17.0953 0 17.0953 0Z" fill="#A3AED0"/>
</g>
<defs>
<clipPath id="clip0_209_543">
<rect width="17" height="17" fill="white"/>
</clipPath>
</defs>
</svg>
