<svg width="16" height="17" viewBox="0 0 16 17" fill="none" xmlns="http://www.w3.org/2000/svg">
<path d="M13.5391 7.36168C13.5199 7.75079 13.2247 8.2312 12.7489 8.69292V14.7774C12.7484 14.9341 12.6867 15.0669 12.5824 15.1707C12.4776 15.2724 12.3417 15.3325 12.1819 15.3335H2.26611C2.10737 15.3325 1.97091 15.2723 1.86612 15.1707C1.76183 15.0669 1.70063 14.9341 1.7001 14.7774V5.05406C1.70063 4.89791 1.76183 4.76456 1.86612 4.6608C1.97091 4.5591 2.10737 4.49894 2.26611 4.49791H7.53243C7.95836 3.93864 8.45484 3.36588 9.01724 2.84087C9.01983 2.83775 9.02192 2.83463 9.02451 2.83154H2.26611C1.64356 2.83101 1.07133 3.0816 0.664063 3.48213C0.254735 3.88266 -0.000530422 4.44296 8.27606e-07 5.05409V14.7774C-0.000530422 15.3886 0.254735 15.9499 0.664063 16.3494C1.0713 16.7499 1.64356 16.9999 2.26611 16.9999H12.1819C12.8055 16.9999 13.3778 16.7499 13.785 16.3493C14.1933 15.9499 14.4491 15.3885 14.4485 14.7774V6.75572C14.4485 6.75572 14.4444 6.75054 14.4376 6.74533C14.1798 6.96636 13.8794 7.17697 13.5391 7.36168Z" fill="#1A00FF"/>
<path d="M16.0953 0C16.0953 0 15.5744 0.778215 12.1721 1.9294C8.70288 3.10346 6.56749 7.87953 6.56749 7.87953C6.05337 8.858 4.02121 12.9233 4.02121 12.9233C3.46144 13.9733 4.48708 14.5938 5.08889 13.5095C6.24216 11.4281 6.98664 9.52618 8.7402 9.47222C11.2984 9.39336 13.0478 7.15942 12.4973 7.26318C11.7731 7.57861 10.1762 7.28706 11.1168 7.14179C13.3746 6.96074 14.766 5.26373 14.3126 5.14858C13.5121 5.45674 12.7655 5.16415 12.6193 5.07593C16.6042 4.59136 16.0953 0 16.0953 0Z" fill="#1A00FF"/>
</svg>
