<svg width="16" height="21" viewBox="0 0 16 21" fill="none" xmlns="http://www.w3.org/2000/svg">
<path d="M13.6806 7H12.7539V5C12.7539 2.24 10.6781 0 8.1204 0C5.5627 0 3.48689 2.24 3.48689 5V7H2.56019C1.54082 7 0.706787 7.9 0.706787 9V19C0.706787 20.1 1.54082 21 2.56019 21H13.6806C14.7 21 15.534 20.1 15.534 19V9C15.534 7.9 14.7 7 13.6806 7ZM8.1204 16C7.10102 16 6.26699 15.1 6.26699 14C6.26699 12.9 7.10102 12 8.1204 12C9.13977 12 9.9738 12.9 9.9738 14C9.9738 15.1 9.13977 16 8.1204 16ZM5.34029 7V5C5.34029 3.34 6.58207 2 8.1204 2C9.65872 2 10.9005 3.34 10.9005 5V7H5.34029Z" fill="#A3AED0"/>
</svg>
