<svg width="17" height="17" viewBox="0 0 17 17" fill="none" xmlns="http://www.w3.org/2000/svg">
<path d="M14.875 5.66667H13.8125V4.04762C13.8125 1.81333 11.4325 0 8.5 0C5.5675 0 3.1875 1.81333 3.1875 4.04762V5.66667H2.125C0.95625 5.66667 0 6.39524 0 7.28571V15.381C0 16.2714 0.95625 17 2.125 17H14.875C16.0438 17 17 16.2714 17 15.381V7.28571C17 6.39524 16.0438 5.66667 14.875 5.66667ZM8.5 12.9524C7.33125 12.9524 6.375 12.2238 6.375 11.3333C6.375 10.4429 7.33125 9.71429 8.5 9.71429C9.66875 9.71429 10.625 10.4429 10.625 11.3333C10.625 12.2238 9.66875 12.9524 8.5 12.9524ZM5.3125 5.66667V4.04762C5.3125 2.70381 6.73625 1.61905 8.5 1.61905C10.2637 1.61905 11.6875 2.70381 11.6875 4.04762V5.66667H5.3125Z" fill="#1A00FF"/>
</svg>
