<svg width="17" height="17" viewBox="0 0 17 17" fill="none" xmlns="http://www.w3.org/2000/svg">
<path fill-rule="evenodd" clip-rule="evenodd" d="M8.5 17C4.49306 17 2.48959 17 1.2448 15.7552C-1.01328e-07 14.5104 0 12.5069 0 8.5C0 4.49306 -1.01328e-07 2.48959 1.2448 1.2448C2.48959 -1.01328e-07 4.49306 0 8.5 0C12.5069 0 14.5104 -1.01328e-07 15.7552 1.2448C17 2.48959 17 4.49306 17 8.5C17 12.5069 17 14.5104 15.7552 15.7552C14.5104 17 12.5069 17 8.5 17ZM5.7375 3.82498C5.7375 3.4729 5.45208 3.18748 5.1 3.18748C4.74792 3.18748 4.4625 3.4729 4.4625 3.82498V4.88749H3.4C3.04792 4.88749 2.7625 5.17291 2.7625 5.52499C2.7625 5.87708 3.04792 6.16249 3.4 6.16249H4.4625V7.225C4.4625 7.57707 4.74792 7.8625 5.1 7.8625C5.45208 7.8625 5.7375 7.57707 5.7375 7.225V6.16249H6.8C7.15207 6.16249 7.4375 5.87708 7.4375 5.52499C7.4375 5.17291 7.15207 4.88749 6.8 4.88749H5.7375V3.82498ZM10.2 4.88748C9.84793 4.88748 9.5625 5.1729 9.5625 5.52498C9.5625 5.87706 9.84793 6.16248 10.2 6.16248H13.6C13.9521 6.16248 14.2375 5.87706 14.2375 5.52498C14.2375 5.1729 13.9521 4.88748 13.6 4.88748H10.2ZM10.2 9.9875C9.84793 9.9875 9.5625 10.2729 9.5625 10.625C9.5625 10.9771 9.84793 11.2625 10.2 11.2625H13.6C13.9521 11.2625 14.2375 10.9771 14.2375 10.625C14.2375 10.2729 13.9521 9.9875 13.6 9.9875H10.2ZM4.27578 10.1742C4.02682 9.92528 3.62318 9.92528 3.37422 10.1742C3.12526 10.4232 3.12526 10.8268 3.37422 11.0758L4.19845 11.9L3.37423 12.7242C3.12527 12.9732 3.12527 13.3768 3.37423 13.6258C3.62319 13.8747 4.02683 13.8747 4.27579 13.6258L5.10001 12.8016L5.92421 13.6258C6.17317 13.8747 6.57681 13.8747 6.82576 13.6258C7.07472 13.3768 7.07472 12.9732 6.82576 12.7242L6.00157 11.9L6.82576 11.0758C7.07472 10.8268 7.07472 10.4232 6.82576 10.1742C6.57682 9.92528 6.17318 9.92528 5.92422 10.1742L5.10001 10.9984L4.27578 10.1742ZM10.2 12.5375C9.84793 12.5375 9.5625 12.8229 9.5625 13.175C9.5625 13.5271 9.84793 13.8125 10.2 13.8125H13.6C13.9521 13.8125 14.2375 13.5271 14.2375 13.175C14.2375 12.8229 13.9521 12.5375 13.6 12.5375H10.2Z" fill="#A3AED0"/>
</svg>
