<svg width="17" height="17" viewBox="0 0 17 17" fill="none" xmlns="http://www.w3.org/2000/svg">
<path fill-rule="evenodd" clip-rule="evenodd" d="M16.864 13.425L16.8654 13.427C17.0988 13.7595 17.2108 14.8635 15.6073 14.6674C15.1352 14.6098 14.4752 14.5079 13.682 14.1799C13.148 13.959 12.6828 13.6818 12.3 13.411C11.6704 13.6873 10.9915 13.8572 10.2826 13.9006C9.31342 15.3148 7.76628 16.2302 6.02301 16.2302C5.45012 16.2302 4.8973 16.1311 4.37888 15.9473C4.0674 16.1445 3.71323 16.3366 3.32177 16.4985C2.52859 16.8265 1.87029 16.9488 1.39655 16.986C1.0418 17.0139 0.792337 16.994 0.668948 16.9784C0.398509 16.9443 0.155521 16.7762 0.0510811 16.4928C-0.0405568 16.2441 -0.00740573 15.9612 0.138524 15.7455C0.317553 15.4792 0.482121 15.2002 0.637681 14.9172C0.941042 14.3651 1.23853 13.77 1.31383 13.1224C0.927146 12.3182 0.708567 11.4028 0.708567 10.4337C0.708567 8.11959 1.95183 6.12225 3.74955 5.19287C4.46512 2.20496 6.95661 0 9.92026 0C13.4424 0 16.2976 3.11422 16.2976 6.95581C16.2976 8.01742 16.0791 9.02539 15.6878 9.92733C15.553 11.2597 16.167 12.3816 16.864 13.425ZM4.96012 6.95581C4.96012 3.96791 7.18084 1.54574 9.92026 1.54574C12.6597 1.54574 14.8804 3.96791 14.8804 6.95581C14.8804 7.82127 14.6946 8.63726 14.3648 9.36082C14.3307 9.43556 14.3079 9.51586 14.2974 9.59855C14.1423 10.8157 14.4041 11.9253 14.9387 12.9906C14.1649 12.7872 13.4357 12.4147 12.7916 11.9049C12.5807 11.7379 12.3029 11.7107 12.0681 11.8339C11.4191 12.1746 10.6911 12.3659 9.92026 12.3659C7.18084 12.3659 4.96012 9.94372 4.96012 6.95581ZM3.54543 7.15235C3.62717 10.3664 5.70788 13.0355 8.47997 13.7335C7.80958 14.3281 6.95445 14.6845 6.02301 14.6845C5.50623 14.6845 5.0146 14.5752 4.56522 14.3773C4.35177 14.2834 4.10975 14.3083 3.91624 14.4443C3.60526 14.6628 3.23551 14.881 2.81931 15.0531C2.54305 15.1674 2.29058 15.2499 2.06513 15.3092C2.30061 14.84 2.53908 14.281 2.649 13.7548C2.70327 13.495 2.73315 13.2422 2.74665 13.0047C2.75531 12.8522 2.72232 12.7003 2.65184 12.5682C2.31748 11.9416 2.12575 11.2132 2.12575 10.4337C2.12575 9.11242 2.67845 7.93194 3.54543 7.15235Z" fill="#A3AED0"/>
</svg>
