<svg width="17" height="17" viewBox="0 0 17 17" fill="none" xmlns="http://www.w3.org/2000/svg">
<path d="M14.4242 0C15.8468 0 17 0.951396 17 2.125V14.2375C17 14.5896 16.654 14.875 16.2273 14.875H1.54545C1.54545 15.3445 2.00674 15.725 2.57576 15.725H16.2273C16.654 15.725 17 16.0104 17 16.3625C17 16.7146 16.654 17 16.2273 17H2.57576C1.15321 17 0 16.0486 0 14.875V2.125C0 0.951396 1.15321 0 2.57576 0H14.4242ZM12.3636 2.55H4.12121C3.5522 2.55 3.09091 2.93056 3.09091 3.4V4.25C3.09091 4.71944 3.5522 5.1 4.12121 5.1H12.3636C12.9327 5.1 13.3939 4.71944 13.3939 4.25V3.4C13.3939 2.93056 12.9327 2.55 12.3636 2.55Z" fill="#A3AED0"/>
</svg>
