<svg width="16" height="20" viewBox="0 0 16 20" fill="none" xmlns="http://www.w3.org/2000/svg">
<path d="M15.6877 15.1692L14.3274 13.8462V11.2821V8.71795C14.3274 5.56923 12.5979 2.93333 9.58198 2.2359V1.53846C9.58198 0.68718 8.87544 0 8.00018 0C7.12492 0 6.41838 0.68718 6.41838 1.53846V2.2359C3.39188 2.93333 1.67299 5.55897 1.67299 8.71795V13.8462L0.312645 15.1692C-0.35171 15.8154 0.112284 16.9231 1.05082 16.9231H14.939C15.8881 16.9231 16.3521 15.8154 15.6877 15.1692ZM12.2183 14.8718H3.78205V8.71795C3.78205 6.17436 5.3744 4.10256 8.00018 4.10256C10.626 4.10256 12.2183 6.17436 12.2183 8.71795V14.8718ZM8.00018 20C9.16017 20 10.1092 19.0769 10.1092 17.9487H5.89112C5.89112 19.0769 6.82965 20 8.00018 20Z" fill="#A3AED0"/>
</svg>
