<svg width="17" height="17" viewBox="0 0 17 17" fill="none" xmlns="http://www.w3.org/2000/svg">
<path d="M17 13.9643C17 13.1592 16.7206 12.3869 16.2222 11.8174C15.7239 11.2479 15.0482 10.9286 14.3438 10.9286C12.1624 10.9286 9.08756 10.9286 6.90625 10.9286C6.20181 10.9286 5.52606 11.2479 5.02775 11.8174C4.52944 12.3869 4.25 13.1592 4.25 13.9643C4.25 15.9642 4.25 17 4.25 17H17C17 17 17 15.9642 17 13.9643ZM3.1875 14.5714H0C0 14.5714 0 13.5356 0 11.5357C0 10.7306 0.279437 9.95836 0.77775 9.38886C1.27606 8.81936 1.95181 8.5 2.65625 8.5H6.9445C7.17612 8.95657 7.47044 9.367 7.81469 9.71429H6.90625C4.85244 9.71429 3.1875 11.6171 3.1875 13.9643V14.5714ZM10.625 2.42857C12.3845 2.42857 13.8125 4.06057 13.8125 6.07143C13.8125 8.08229 12.3845 9.71429 10.625 9.71429C8.8655 9.71429 7.4375 8.08229 7.4375 6.07143C7.4375 4.06057 8.8655 2.42857 10.625 2.42857ZM6.50887 7.28207C6.46425 7.2845 6.41962 7.28571 6.375 7.28571C4.6155 7.28571 3.1875 5.65371 3.1875 3.64286C3.1875 1.632 4.6155 0 6.375 0C7.46513 0 8.42775 0.626571 9.00256 1.581C7.46087 2.31079 6.375 4.04721 6.375 6.07143C6.375 6.48914 6.42175 6.89593 6.50887 7.28207Z" fill="#1A00FF"/>
</svg>
